<svg width="75" height="28" viewBox="0 0 75 28" fill="none" xmlns="http://www.w3.org/2000/svg">
<path d="M5.418 7.22H6.786L12.006 20H10.278L8.766 16.256H3.402L1.908 20H0.18L5.418 7.22ZM8.406 14.996L6.102 9.092L3.726 14.996H8.406ZM18.2836 20.18C17.5516 20.18 16.8856 20 16.2856 19.64C15.6856 19.28 15.2116 18.812 14.8636 18.236V20H13.4596V6.86H15.0436V12.476C15.4396 11.864 15.9256 11.372 16.5016 11C17.0776 10.628 17.7496 10.442 18.5176 10.442C19.1656 10.442 19.7476 10.58 20.2636 10.856C20.7796 11.12 21.2176 11.486 21.5776 11.954C21.9496 12.41 22.2316 12.932 22.4236 13.52C22.6276 14.096 22.7296 14.702 22.7296 15.338C22.7296 15.998 22.6156 16.622 22.3876 17.21C22.1716 17.786 21.8596 18.302 21.4516 18.758C21.0436 19.202 20.5696 19.55 20.0296 19.802C19.5016 20.054 18.9196 20.18 18.2836 20.18ZM17.8876 18.812C18.3556 18.812 18.7876 18.716 19.1836 18.524C19.5796 18.332 19.9216 18.074 20.2096 17.75C20.4976 17.426 20.7196 17.054 20.8756 16.634C21.0316 16.214 21.1096 15.782 21.1096 15.338C21.1096 14.726 20.9776 14.15 20.7136 13.61C20.4616 13.07 20.1016 12.638 19.6336 12.314C19.1776 11.978 18.6436 11.81 18.0316 11.81C17.5876 11.81 17.1736 11.912 16.7896 12.116C16.4056 12.32 16.0636 12.59 15.7636 12.926C15.4756 13.25 15.2356 13.61 15.0436 14.006V16.724C15.1036 17.024 15.2296 17.3 15.4216 17.552C15.6136 17.804 15.8476 18.026 16.1236 18.218C16.3996 18.398 16.6876 18.542 16.9876 18.65C17.2996 18.758 17.5996 18.812 17.8876 18.812ZM28.7785 20.18C28.0705 20.18 27.4285 20.054 26.8525 19.802C26.2765 19.538 25.7785 19.184 25.3585 18.74C24.9385 18.284 24.6145 17.762 24.3865 17.174C24.1585 16.586 24.0445 15.968 24.0445 15.32C24.0445 14.66 24.1585 14.036 24.3865 13.448C24.6145 12.86 24.9385 12.344 25.3585 11.9C25.7785 11.444 26.2765 11.09 26.8525 10.838C27.4405 10.574 28.0825 10.442 28.7785 10.442C29.4865 10.442 30.1285 10.574 30.7045 10.838C31.2805 11.09 31.7785 11.444 32.1985 11.9C32.6305 12.344 32.9605 12.86 33.1885 13.448C33.4165 14.036 33.5305 14.66 33.5305 15.32C33.5305 15.968 33.4165 16.586 33.1885 17.174C32.9605 17.762 32.6365 18.284 32.2165 18.74C31.7965 19.184 31.2925 19.538 30.7045 19.802C30.1285 20.054 29.4865 20.18 28.7785 20.18ZM25.6645 15.338C25.6645 15.986 25.8025 16.574 26.0785 17.102C26.3665 17.63 26.7445 18.05 27.2125 18.362C27.6805 18.662 28.2025 18.812 28.7785 18.812C29.3545 18.812 29.8765 18.656 30.3445 18.344C30.8245 18.032 31.2025 17.612 31.4785 17.084C31.7665 16.544 31.9105 15.95 31.9105 15.302C31.9105 14.654 31.7665 14.066 31.4785 13.538C31.2025 13.01 30.8245 12.59 30.3445 12.278C29.8765 11.966 29.3545 11.81 28.7785 11.81C28.2025 11.81 27.6805 11.972 27.2125 12.296C26.7445 12.608 26.3665 13.028 26.0785 13.556C25.8025 14.084 25.6645 14.678 25.6645 15.338ZM35.3599 16.238V10.604H36.9439V15.932C36.9439 16.892 37.1119 17.612 37.4479 18.092C37.7839 18.572 38.2819 18.812 38.9419 18.812C39.3739 18.812 39.7879 18.722 40.1839 18.542C40.5919 18.35 40.9579 18.08 41.2819 17.732C41.6059 17.384 41.8579 16.97 42.0379 16.49V10.604H43.6219V18.2C43.6219 18.392 43.6579 18.536 43.7299 18.632C43.8139 18.716 43.9459 18.764 44.1259 18.776V20C43.9459 20.024 43.8019 20.036 43.6939 20.036C43.5979 20.048 43.5019 20.054 43.4059 20.054C43.1059 20.054 42.8479 19.964 42.6319 19.784C42.4159 19.592 42.3019 19.358 42.2899 19.082L42.2539 17.984C41.8459 18.68 41.2939 19.22 40.5979 19.604C39.9139 19.988 39.1639 20.18 38.3479 20.18C37.3639 20.18 36.6199 19.85 36.1159 19.19C35.6119 18.518 35.3599 17.534 35.3599 16.238ZM51.1204 19.532C50.9884 19.592 50.8084 19.67 50.5804 19.766C50.3524 19.862 50.0884 19.946 49.7884 20.018C49.4884 20.09 49.1704 20.126 48.8344 20.126C48.4504 20.126 48.0964 20.06 47.7724 19.928C47.4484 19.784 47.1904 19.568 46.9984 19.28C46.8064 18.98 46.7104 18.608 46.7104 18.164V11.846H45.4324V10.604H46.7104V7.472H48.2944V10.604H50.4004V11.846H48.2944V17.678C48.3184 18.014 48.4324 18.266 48.6364 18.434C48.8404 18.59 49.0804 18.668 49.3564 18.668C49.6684 18.668 49.9564 18.614 50.2204 18.506C50.4844 18.398 50.6584 18.32 50.7424 18.272L51.1204 19.532Z" fill="#00FFFF"/>
</svg>



