<svg width="75" height="28" viewBox="0 0 75 28" fill="none" xmlns="http://www.w3.org/2000/svg">
<path d="M0.702 13.52C0.702 12.74 0.834 11.978 1.098 11.234C1.374 10.478 1.77 9.794 2.286 9.182C2.814 8.558 3.456 8.066 4.212 7.706C4.968 7.334 5.826 7.148 6.786 7.148C7.926 7.148 8.904 7.412 9.72 7.94C10.536 8.456 11.142 9.122 11.538 9.938L10.26 10.766C10.008 10.226 9.684 9.8 9.288 9.488C8.904 9.164 8.484 8.936 8.028 8.804C7.584 8.672 7.146 8.606 6.714 8.606C6.006 8.606 5.376 8.75 4.824 9.038C4.284 9.326 3.828 9.71 3.456 10.19C3.084 10.67 2.802 11.21 2.61 11.81C2.43 12.398 2.34 12.992 2.34 13.592C2.34 14.252 2.448 14.888 2.664 15.5C2.892 16.112 3.204 16.652 3.6 17.12C3.996 17.588 4.464 17.96 5.004 18.236C5.544 18.512 6.132 18.65 6.768 18.65C7.212 18.65 7.668 18.572 8.136 18.416C8.604 18.26 9.042 18.02 9.45 17.696C9.858 17.36 10.182 16.928 10.422 16.4L11.772 17.138C11.508 17.774 11.1 18.314 10.548 18.758C9.996 19.202 9.378 19.538 8.694 19.766C8.022 19.994 7.356 20.108 6.696 20.108C5.82 20.108 5.016 19.922 4.284 19.55C3.552 19.166 2.916 18.662 2.376 18.038C1.848 17.402 1.434 16.694 1.134 15.914C0.846 15.122 0.702 14.324 0.702 13.52ZM17.6515 20.18C16.9435 20.18 16.3015 20.054 15.7255 19.802C15.1495 19.538 14.6515 19.184 14.2315 18.74C13.8115 18.284 13.4875 17.762 13.2595 17.174C13.0315 16.586 12.9175 15.968 12.9175 15.32C12.9175 14.66 13.0315 14.036 13.2595 13.448C13.4875 12.86 13.8115 12.344 14.2315 11.9C14.6515 11.444 15.1495 11.09 15.7255 10.838C16.3135 10.574 16.9555 10.442 17.6515 10.442C18.3595 10.442 19.0015 10.574 19.5775 10.838C20.1535 11.09 20.6515 11.444 21.0715 11.9C21.5035 12.344 21.8335 12.86 22.0615 13.448C22.2895 14.036 22.4035 14.66 22.4035 15.32C22.4035 15.968 22.2895 16.586 22.0615 17.174C21.8335 17.762 21.5095 18.284 21.0895 18.74C20.6695 19.184 20.1655 19.538 19.5775 19.802C19.0015 20.054 18.3595 20.18 17.6515 20.18ZM14.5375 15.338C14.5375 15.986 14.6755 16.574 14.9515 17.102C15.2395 17.63 15.6175 18.05 16.0855 18.362C16.5535 18.662 17.0755 18.812 17.6515 18.812C18.2275 18.812 18.7495 18.656 19.2175 18.344C19.6975 18.032 20.0755 17.612 20.3515 17.084C20.6395 16.544 20.7835 15.95 20.7835 15.302C20.7835 14.654 20.6395 14.066 20.3515 13.538C20.0755 13.01 19.6975 12.59 19.2175 12.278C18.7495 11.966 18.2275 11.81 17.6515 11.81C17.0755 11.81 16.5535 11.972 16.0855 12.296C15.6175 12.608 15.2395 13.028 14.9515 13.556C14.6755 14.084 14.5375 14.678 14.5375 15.338ZM32.4769 20H30.8929V14.744C30.8929 13.748 30.7369 13.022 30.4249 12.566C30.1249 12.098 29.6629 11.864 29.0389 11.864C28.6069 11.864 28.1749 11.972 27.7429 12.188C27.3229 12.404 26.9449 12.698 26.6089 13.07C26.2849 13.43 26.0509 13.85 25.9069 14.33V20H24.3229V10.604H25.7629V12.62C26.0149 12.176 26.3389 11.792 26.7349 11.468C27.1309 11.144 27.5809 10.892 28.0849 10.712C28.5889 10.532 29.1169 10.442 29.6689 10.442C30.2089 10.442 30.6589 10.544 31.0189 10.748C31.3909 10.94 31.6789 11.216 31.8829 11.576C32.0989 11.924 32.2489 12.338 32.3329 12.818C32.4289 13.298 32.4769 13.82 32.4769 14.384V20ZM39.7122 19.532C39.5802 19.592 39.4002 19.67 39.1722 19.766C38.9442 19.862 38.6802 19.946 38.3802 20.018C38.0802 20.09 37.7622 20.126 37.4262 20.126C37.0422 20.126 36.6882 20.06 36.3642 19.928C36.0402 19.784 35.7822 19.568 35.5902 19.28C35.3982 18.98 35.3022 18.608 35.3022 18.164V11.846H34.0242V10.604H35.3022V7.472H36.8862V10.604H38.9922V11.846H36.8862V17.678C36.9102 18.014 37.0242 18.266 37.2282 18.434C37.4322 18.59 37.6722 18.668 37.9482 18.668C38.2602 18.668 38.5482 18.614 38.8122 18.506C39.0762 18.398 39.2502 18.32 39.3342 18.272L39.7122 19.532ZM40.4423 17.282C40.4423 16.682 40.6103 16.166 40.9463 15.734C41.2943 15.29 41.7683 14.948 42.3683 14.708C42.9683 14.468 43.6643 14.348 44.4563 14.348C44.8763 14.348 45.3203 14.384 45.7883 14.456C46.2563 14.516 46.6703 14.612 47.0303 14.744V14.06C47.0303 13.34 46.8143 12.776 46.3823 12.368C45.9503 11.948 45.3383 11.738 44.5463 11.738C44.0303 11.738 43.5323 11.834 43.0523 12.026C42.5843 12.206 42.0863 12.47 41.5583 12.818L40.9823 11.702C41.5943 11.282 42.2063 10.97 42.8183 10.766C43.4303 10.55 44.0663 10.442 44.7263 10.442C45.9263 10.442 46.8743 10.778 47.5703 11.45C48.2663 12.11 48.6143 13.034 48.6143 14.222V18.2C48.6143 18.392 48.6503 18.536 48.7223 18.632C48.8063 18.716 48.9383 18.764 49.1183 18.776V20C48.9623 20.024 48.8243 20.042 48.7043 20.054C48.5963 20.066 48.5063 20.072 48.4343 20.072C48.0623 20.072 47.7803 19.97 47.5883 19.766C47.4083 19.562 47.3063 19.346 47.2823 19.118L47.2463 18.524C46.8383 19.052 46.3043 19.46 45.6443 19.748C44.9843 20.036 44.3303 20.18 43.6823 20.18C43.0583 20.18 42.5003 20.054 42.0083 19.802C41.5163 19.538 41.1323 19.19 40.8563 18.758C40.5803 18.314 40.4423 17.822 40.4423 17.282ZM46.5623 17.948C46.7063 17.78 46.8203 17.612 46.9043 17.444C46.9883 17.264 47.0303 17.114 47.0303 16.994V15.824C46.6583 15.68 46.2683 15.572 45.8603 15.5C45.4523 15.416 45.0503 15.374 44.6543 15.374C43.8503 15.374 43.1963 15.536 42.6923 15.86C42.2003 16.172 41.9543 16.604 41.9543 17.156C41.9543 17.456 42.0323 17.75 42.1883 18.038C42.3563 18.314 42.5963 18.542 42.9083 18.722C43.2323 18.902 43.6283 18.992 44.0963 18.992C44.5883 18.992 45.0563 18.896 45.5003 18.704C45.9443 18.5 46.2983 18.248 46.5623 17.948ZM55.3051 20.18C54.5971 20.18 53.9491 20.054 53.3611 19.802C52.7851 19.538 52.2811 19.178 51.8491 18.722C51.4291 18.266 51.0991 17.744 50.8591 17.156C50.6311 16.568 50.5171 15.944 50.5171 15.284C50.5171 14.396 50.7151 13.586 51.1111 12.854C51.5071 12.122 52.0651 11.54 52.7851 11.108C53.5051 10.664 54.3391 10.442 55.2871 10.442C56.2111 10.442 57.0151 10.652 57.6991 11.072C58.3951 11.48 58.9111 12.032 59.2471 12.728L57.6991 13.214C57.4591 12.77 57.1231 12.428 56.6911 12.188C56.2591 11.936 55.7791 11.81 55.2511 11.81C54.6751 11.81 54.1471 11.96 53.6671 12.26C53.1991 12.56 52.8271 12.974 52.5511 13.502C52.2751 14.018 52.1371 14.612 52.1371 15.284C52.1371 15.944 52.2751 16.544 52.5511 17.084C52.8391 17.612 53.2171 18.032 53.6851 18.344C54.1651 18.656 54.6931 18.812 55.2691 18.812C55.6411 18.812 55.9951 18.746 56.3311 18.614C56.6791 18.482 56.9791 18.308 57.2311 18.092C57.4951 17.864 57.6751 17.618 57.7711 17.354L59.3191 17.822C59.1271 18.278 58.8331 18.686 58.4371 19.046C58.0531 19.394 57.5911 19.67 57.0511 19.874C56.5231 20.078 55.9411 20.18 55.3051 20.18ZM65.9739 19.532C65.8419 19.592 65.6619 19.67 65.4339 19.766C65.2059 19.862 64.9419 19.946 64.6419 20.018C64.3419 20.09 64.0239 20.126 63.6879 20.126C63.3039 20.126 62.9499 20.06 62.6259 19.928C62.3019 19.784 62.0439 19.568 61.8519 19.28C61.6599 18.98 61.5639 18.608 61.5639 18.164V11.846H60.2859V10.604H61.5639V7.472H63.1479V10.604H65.2539V11.846H63.1479V17.678C63.1719 18.014 63.2859 18.266 63.4899 18.434C63.6939 18.59 63.9339 18.668 64.2099 18.668C64.5219 18.668 64.8099 18.614 65.0739 18.506C65.3379 18.398 65.5119 18.32 65.5959 18.272L65.9739 19.532ZM70.6641 20.18C69.8841 20.18 69.1521 20.054 68.4681 19.802C67.7841 19.538 67.1961 19.148 66.7041 18.632L67.3161 17.516C67.8561 18.02 68.3961 18.38 68.9361 18.596C69.4761 18.812 70.0281 18.92 70.5921 18.92C71.2401 18.92 71.7681 18.8 72.1761 18.56C72.5841 18.308 72.7881 17.942 72.7881 17.462C72.7881 17.114 72.6801 16.856 72.4641 16.688C72.2601 16.52 71.9661 16.382 71.5821 16.274C71.1981 16.154 70.7421 16.022 70.2141 15.878C69.5661 15.686 69.0201 15.482 68.5761 15.266C68.1321 15.05 67.7961 14.78 67.5681 14.456C67.3401 14.132 67.2261 13.724 67.2261 13.232C67.2261 12.632 67.3821 12.128 67.6941 11.72C68.0061 11.3 68.4321 10.982 68.9721 10.766C69.5241 10.55 70.1481 10.442 70.8441 10.442C71.5401 10.442 72.1701 10.55 72.7341 10.766C73.2981 10.982 73.7841 11.3 74.1921 11.72L73.4721 12.818C73.1001 12.434 72.6921 12.152 72.2481 11.972C71.8041 11.78 71.3061 11.684 70.7541 11.684C70.4301 11.684 70.1121 11.726 69.8001 11.81C69.4881 11.882 69.2301 12.02 69.0261 12.224C68.8221 12.416 68.7201 12.692 68.7201 13.052C68.7201 13.352 68.7981 13.592 68.9541 13.772C69.1221 13.94 69.3621 14.084 69.6741 14.204C69.9981 14.324 70.3881 14.456 70.8441 14.6C71.5521 14.804 72.1641 15.008 72.6801 15.212C73.2081 15.416 73.6161 15.68 73.9041 16.004C74.1921 16.328 74.3361 16.778 74.3361 17.354C74.3361 18.242 74.0001 18.938 73.3281 19.442C72.6561 19.934 71.7681 20.18 70.6641 20.18Z" fill="#00FFFF"/>
</svg>
