<svg width="169" height="26" viewBox="0 0 169 26" fill="none" xmlns="http://www.w3.org/2000/svg">
<g filter="url(#filter0_d_203_22)">
<path d="M5.34724 11.5454C5.13395 11.5412 4.96426 11.4899 4.83817 11.3914C4.71208 11.2929 4.63995 11.1634 4.62176 11.003C4.60358 10.8427 4.63914 10.662 4.72844 10.461L9.25479 0.820126C9.36646 0.566272 9.50333 0.387595 9.6654 0.284093C9.83813 0.180801 10.0258 0.131147 10.2284 0.13513C10.4204 0.138903 10.5953 0.195685 10.7532 0.305476C10.9217 0.415476 11.0568 0.599499 11.1584 0.857546L15.3024 10.6689C15.3944 10.8734 15.428 11.0608 15.4034 11.231C15.3789 11.3905 15.3071 11.5171 15.1879 11.6108C15.0689 11.6938 14.9027 11.7332 14.6894 11.729C14.4548 11.7244 14.2693 11.6621 14.133 11.5421C13.9967 11.422 13.8776 11.2383 13.7758 10.9909L12.7069 8.37743L13.45 8.84013L6.63529 8.70617L7.37996 8.27272L6.22523 10.8425C6.11355 11.0964 5.99257 11.2807 5.86229 11.3955C5.73222 11.4996 5.56054 11.5496 5.34724 11.5454ZM10.1581 2.08612L7.62997 7.76554L7.2376 7.37375L12.8845 7.48475L12.509 7.86144L10.1901 2.08675L10.1581 2.08612ZM20.1223 11.8678C19.4824 11.8553 18.946 11.7327 18.5132 11.5001C18.0803 11.2676 17.7616 10.9306 17.5569 10.4892C17.3522 10.0477 17.256 9.51239 17.2684 8.88318L17.3426 5.10791L16.3828 5.08904C16.1695 5.08485 16.0052 5.02827 15.89 4.91932C15.775 4.79971 15.7194 4.64392 15.7232 4.45195C15.7271 4.24933 15.7888 4.09584 15.9082 3.9915C16.0276 3.88716 16.194 3.83709 16.4073 3.84128L17.3671 3.86015L17.3995 2.21247C17.4047 1.94585 17.478 1.74459 17.6194 1.60867C17.7714 1.47297 17.9754 1.40763 18.2314 1.41266C18.4873 1.41769 18.6833 1.49089 18.8192 1.63226C18.9551 1.77362 19.0204 1.97761 19.0152 2.24423L18.9828 3.89191L20.8544 3.9287C21.0677 3.93289 21.232 3.98946 21.3472 4.09842C21.4624 4.20737 21.518 4.36316 21.514 4.56578C21.5103 4.75775 21.4486 4.91123 21.329 5.02624C21.2095 5.13058 21.0432 5.18065 20.8299 5.17646L18.9583 5.13967L18.8866 8.78696C18.8755 9.35219 18.9844 9.78108 19.2133 10.0736C19.453 10.3664 19.8447 10.5181 20.3886 10.5288C20.5806 10.5326 20.7462 10.5198 20.8855 10.4906C21.0356 10.4509 21.1588 10.4266 21.255 10.4178C21.3723 10.4201 21.4674 10.4647 21.5404 10.5515C21.6136 10.6276 21.648 10.7776 21.6436 11.0016C21.6404 11.1615 21.6055 11.3102 21.5388 11.4476C21.4827 11.5852 21.3796 11.6739 21.2295 11.7136C21.1007 11.7537 20.924 11.7876 20.6994 11.8152C20.4853 11.8536 20.2929 11.8712 20.1223 11.8678ZM25.9508 11.9824C25.1616 11.9669 24.4823 11.7882 23.9129 11.4463C23.3542 11.1045 22.9208 10.6266 22.6128 10.0124C22.3048 9.39826 22.1589 8.68059 22.1751 7.85941C22.1874 7.2302 22.2891 6.67209 22.48 6.18508C22.671 5.69807 22.9352 5.28185 23.2727 4.93642C23.6211 4.58053 24.0317 4.31655 24.5045 4.14448C24.9882 3.96195 25.5233 3.87645 26.1099 3.88798C26.8884 3.90328 27.557 4.08179 28.1157 4.4235C28.6851 4.76542 29.1238 5.24347 29.4318 5.85764C29.74 6.46115 29.8859 7.17882 29.8696 8.01066C29.8574 8.62921 29.7558 9.18732 29.5646 9.68499C29.3735 10.1827 29.1038 10.6041 28.7556 10.9493C28.4181 11.2948 28.0075 11.5588 27.5238 11.7413C27.051 11.9134 26.5266 11.9937 25.9508 11.9824ZM25.9753 10.7347C26.4125 10.7432 26.7986 10.6442 27.1334 10.4374C27.4681 10.2306 27.7303 9.92099 27.9198 9.50863C28.1199 9.09649 28.2259 8.58647 28.2379 7.97859C28.2559 7.06143 28.0669 6.36425 27.6709 5.88704C27.2749 5.40983 26.7462 5.16473 26.085 5.15173C25.6371 5.14293 25.2458 5.24192 24.911 5.44872C24.5764 5.64484 24.309 5.94898 24.1089 6.36113C23.9194 6.77348 23.8187 7.2836 23.8067 7.89149C23.7889 8.79798 23.9779 9.49516 24.3737 9.98303C24.7696 10.4709 25.3034 10.7214 25.9753 10.7347ZM34.1161 12.1429C33.2842 12.1266 32.6597 11.8742 32.2426 11.386C31.8363 10.8872 31.6422 10.1793 31.6602 9.2621L31.8152 1.37562C31.8205 1.109 31.8938 0.90774 32.0351 0.771825C32.1765 0.635911 32.3752 0.570469 32.6311 0.5755C32.8871 0.580532 33.083 0.65373 33.2189 0.795094C33.3655 0.936669 33.4362 1.14076 33.4309 1.40738L33.2778 9.19788C33.2673 9.73111 33.3661 10.1331 33.5741 10.4039C33.7931 10.6643 34.1105 10.7985 34.5264 10.8067C34.6224 10.8086 34.7077 10.8103 34.7823 10.8118C34.8572 10.8026 34.9321 10.7934 35.0069 10.7842C35.1351 10.776 35.225 10.8151 35.2767 10.9015C35.3285 10.9772 35.3521 11.1377 35.3472 11.383C35.3428 11.6069 35.2914 11.7819 35.1929 11.908C35.0946 12.0235 34.9385 12.0951 34.7246 12.1229C34.6284 12.1317 34.527 12.135 34.4203 12.1329C34.3135 12.1415 34.212 12.1448 34.1161 12.1429ZM38.9897 12.2387C38.4458 12.228 37.9574 12.1117 37.5243 11.8899C37.1019 11.6682 36.7716 11.3736 36.5335 11.0062C36.2953 10.6388 36.1808 10.2258 36.1898 9.76722C36.2011 9.19133 36.354 8.74091 36.6484 8.41597C36.9537 8.08057 37.4437 7.85016 38.1183 7.72472C38.8038 7.58883 39.7224 7.53221 40.8742 7.55485L41.626 7.56963L41.6065 8.56144L40.8707 8.54697C40.1028 8.53188 39.4942 8.55726 39.0448 8.62311C38.5954 8.68895 38.273 8.81064 38.0774 8.98816C37.8928 9.15523 37.7974 9.39341 37.7914 9.70268C37.7834 10.1079 37.9155 10.4413 38.1878 10.7027C38.4602 10.9534 38.8417 11.0836 39.3323 11.0932C39.7269 11.101 40.0753 11.0172 40.3775 10.8417C40.6798 10.6556 40.9195 10.4043 41.0964 10.0877C41.284 9.77133 41.3819 9.40519 41.3901 8.98927L41.4262 7.14962C41.4382 6.54174 41.3188 6.10198 41.0681 5.83033C40.8174 5.55868 40.3987 5.41709 39.8122 5.40556C39.4709 5.39886 39.1128 5.43449 38.7379 5.51247C38.3736 5.59066 37.9922 5.72719 37.5936 5.92206C37.4106 6.00382 37.2555 6.02744 37.1281 5.99293C37.0008 5.95842 36.9008 5.88711 36.8283 5.77899C36.7559 5.66022 36.7157 5.53673 36.7075 5.40855C36.7103 5.26991 36.7449 5.13723 36.8114 5.01051C36.8885 4.88401 37.0131 4.79043 37.185 4.7298C37.6586 4.51507 38.1257 4.36422 38.5861 4.27725C39.0466 4.19028 39.4795 4.15078 39.8847 4.15875C40.5992 4.1728 41.1836 4.2963 41.6378 4.52927C42.1026 4.76246 42.4425 5.11054 42.6574 5.57352C42.8724 6.0365 42.9727 6.63058 42.9585 7.35578L42.8777 11.467C42.8726 11.7229 42.8047 11.9243 42.6737 12.0711C42.543 12.2072 42.3551 12.2729 42.1098 12.268C41.8751 12.2634 41.6899 12.1904 41.554 12.0491C41.4183 11.8971 41.3529 11.6931 41.358 11.4371L41.3784 10.3973L41.5224 10.4001C41.4293 10.7931 41.2626 11.1312 41.0223 11.4145C40.7929 11.6874 40.5061 11.8951 40.1619 12.0377C39.8177 12.1803 39.427 12.2473 38.9897 12.2387ZM48.565 15.3075C47.9891 15.2962 47.4304 15.2265 46.8888 15.0985C46.3579 14.9707 45.8764 14.7692 45.4444 14.494C45.2861 14.4056 45.1816 14.2968 45.1308 14.1678C45.0797 14.0494 45.0662 13.9265 45.09 13.7989C45.1245 13.6716 45.1854 13.5607 45.2726 13.4664C45.3598 13.3721 45.4624 13.3101 45.5803 13.2804C45.7089 13.251 45.8418 13.2749 45.979 13.3523C46.4432 13.6175 46.8824 13.7968 47.2966 13.8903C47.7213 13.9947 48.115 14.0504 48.4776 14.0575C49.2241 14.0722 49.7878 13.8913 50.1686 13.5147C50.5492 13.1487 50.7467 12.5979 50.7612 11.862L50.7932 10.2303L50.9372 10.2331C50.7657 10.8165 50.4207 11.2739 49.9021 11.6051C49.3834 11.9363 48.7882 12.0953 48.1163 12.0821C47.4125 12.0682 46.8024 11.8962 46.2861 11.566C45.7701 11.2251 45.3737 10.7639 45.0971 10.1824C44.8207 9.59014 44.6901 8.90477 44.7054 8.12626C44.7169 7.53971 44.8073 7.01338 44.9765 6.54728C45.1564 6.08139 45.3989 5.68075 45.7043 5.34535C46.0202 5.01016 46.3933 4.75611 46.8235 4.5832C47.2645 4.39983 47.7463 4.31328 48.2688 4.32356C48.9514 4.33697 49.5399 4.51924 50.0344 4.87036C50.5396 5.22169 50.8611 5.6921 50.9989 6.28159L50.8336 6.55039L50.8597 5.22265C50.8649 4.95603 50.9382 4.75477 51.0796 4.61885C51.2316 4.48315 51.4303 4.41771 51.6756 4.42253C51.9315 4.42756 52.1274 4.50076 52.2634 4.64212C52.3993 4.78349 52.4646 4.98748 52.4594 5.25409L52.3326 11.7008C52.3087 12.9166 51.9761 13.8276 51.3347 14.4338C50.6934 15.0399 49.7701 15.3312 48.565 15.3075ZM48.5251 10.8258C48.9943 10.8351 49.3964 10.7363 49.7312 10.5295C50.066 10.3227 50.3279 10.0238 50.5169 9.63276C50.706 9.24174 50.8058 8.77961 50.8162 8.24638C50.832 7.44653 50.6418 6.80801 50.2458 6.3308C49.8604 5.8538 49.3211 5.60849 48.6279 5.59486C48.1693 5.58585 47.7727 5.68473 47.4379 5.89153C47.1031 6.09832 46.8358 6.39713 46.6361 6.78794C46.4472 7.16831 46.3476 7.6251 46.3371 8.15833C46.3212 8.96884 46.5112 9.6127 46.9073 10.0899C47.3033 10.5671 47.8426 10.8124 48.5251 10.8258ZM58.7757 12.6277C58.0931 12.6142 57.5046 12.432 57.0101 12.0808C56.5158 11.7191 56.1889 11.2486 56.0296 10.6693L56.2113 10.3848L56.1848 11.7286C56.1798 11.9845 56.1065 12.1858 55.9649 12.3324C55.8236 12.4683 55.6302 12.5338 55.385 12.529C55.129 12.524 54.9331 12.4508 54.7972 12.3094C54.6615 12.1574 54.5961 11.9534 54.6011 11.6974L54.7952 1.82734C54.8004 1.56072 54.8737 1.35946 55.0151 1.22354C55.1564 1.08763 55.3551 1.02219 55.611 1.02722C55.867 1.03225 56.0629 1.10545 56.1988 1.24681C56.3454 1.38839 56.4161 1.59248 56.4108 1.8591L56.3228 6.33823L56.1308 6.33446C56.3126 5.77259 56.6573 5.33128 57.1651 5.01053C57.673 4.67911 58.2629 4.52001 58.9348 4.53322C59.6386 4.54705 60.2433 4.7243 60.7487 5.06497C61.2541 5.40563 61.6396 5.8773 61.9051 6.47997C62.1813 7.08285 62.3111 7.80554 62.2946 8.64804C62.2784 9.46922 62.1203 10.1862 61.8202 10.7991C61.531 11.4016 61.1218 11.8629 60.5928 12.1833C60.0746 12.4932 59.4689 12.6413 58.7757 12.6277ZM58.4003 11.372C58.8482 11.3808 59.2395 11.2818 59.5743 11.0751C59.9091 10.8683 60.1713 10.5587 60.3607 10.1463C60.5502 9.73397 60.6509 9.22385 60.6629 8.61597C60.6809 7.69881 60.4919 7.00163 60.0959 6.52442C59.7105 6.04742 59.1819 5.80232 58.51 5.78911C58.0728 5.78052 57.6814 5.87951 57.336 6.0861C57.0014 6.28222 56.7393 6.58647 56.5499 6.99882C56.3604 7.41118 56.2597 7.9213 56.2477 8.52918C56.2299 9.43567 56.4189 10.1329 56.8147 10.6207C57.2106 11.1086 57.7391 11.359 58.4003 11.372ZM67.6991 12.8031C66.8459 12.7863 66.1132 12.6119 65.5009 12.2798C64.8995 11.9372 64.4341 11.464 64.1046 10.86C63.7859 10.2457 63.6348 9.52255 63.6511 8.69071C63.667 7.8802 63.8463 7.17425 64.1888 6.57287C64.5314 5.97149 64.994 5.50582 65.5766 5.17587C66.1592 4.84593 66.8184 4.68819 67.5542 4.70265C68.0981 4.71334 68.5816 4.81353 69.0046 5.00321C69.4278 5.18223 69.7854 5.44531 70.0773 5.79245C70.3801 6.12913 70.6014 6.53889 70.7413 7.02173C70.8918 7.50479 70.9612 8.04492 70.9495 8.64214C70.9459 8.82344 70.8899 8.96103 70.7813 9.05491C70.673 9.13813 70.5122 9.17765 70.2989 9.17346L64.9239 9.0678L64.9434 8.07599L69.8705 8.17284L69.5941 8.39145C69.6046 7.85822 69.5335 7.40341 69.3809 7.027C69.2389 6.6508 69.0152 6.36368 68.7097 6.16564C68.4151 5.95714 68.0438 5.84849 67.5959 5.83969C67.0947 5.82984 66.6658 5.93876 66.3092 6.16647C65.9634 6.39438 65.6957 6.71451 65.5062 7.12687C65.3167 7.53922 65.2165 8.02268 65.2056 8.57724L65.2038 8.67322C65.1853 9.61171 65.39 10.3252 65.8178 10.8137C66.2565 11.2918 66.8971 11.5391 67.7396 11.5556C68.0595 11.5619 68.3963 11.5259 68.7499 11.4475C69.1142 11.3693 69.4583 11.232 69.7822 11.0357C69.9656 10.9326 70.1265 10.8877 70.2649 10.9011C70.414 10.9147 70.5304 10.965 70.614 11.052C70.7084 11.1392 70.7649 11.247 70.7837 11.3754C70.8025 11.5038 70.7786 11.6367 70.7119 11.7741C70.6454 11.9008 70.5311 12.0159 70.369 12.1194C70.0016 12.3576 69.5767 12.5359 69.0943 12.6545C68.612 12.7623 68.147 12.8119 67.6991 12.8031ZM76.9584 12.9531C76.7451 12.9489 76.5754 12.8975 76.4493 12.799C76.3233 12.7005 76.2511 12.5711 76.2329 12.4107C76.2147 12.2503 76.2503 12.0696 76.3396 11.8687L80.866 2.22779C80.9776 1.97394 81.1145 1.79526 81.2766 1.69176C81.4493 1.58847 81.637 1.53881 81.8396 1.54279C82.0316 1.54657 82.2065 1.60335 82.3644 1.71314C82.5329 1.82314 82.668 2.00716 82.7696 2.26521L86.9136 12.0765C87.0056 12.2811 87.0392 12.4684 87.0145 12.6386C86.9901 12.7982 86.9182 12.9248 86.799 13.0185C86.68 13.1015 86.5139 13.1409 86.3006 13.1367C86.066 13.1321 85.8805 13.0698 85.7442 12.9497C85.6078 12.8297 85.4888 12.646 85.3869 12.3986L84.3181 9.7851L85.0611 10.2478L78.2465 10.1138L78.9911 9.68038L77.8364 12.2502C77.7247 12.504 77.6037 12.6884 77.4735 12.8032C77.3434 12.9073 77.1717 12.9573 76.9584 12.9531ZM81.7692 3.49379L79.2411 9.1732L78.8488 8.78141L84.4957 8.89241L84.1202 9.26911L81.8012 3.49442L81.7692 3.49379ZM91.1363 13.2638C90.3045 13.2474 89.68 12.9951 89.2628 12.5068C88.8565 12.0081 88.6624 11.3001 88.6804 10.3829L88.8355 2.49647C88.8407 2.22985 88.914 2.02859 89.0554 1.89267C89.1967 1.75676 89.3954 1.69132 89.6513 1.69635C89.9073 1.70138 90.1032 1.77458 90.2391 1.91594C90.3857 2.05752 90.4564 2.26161 90.4511 2.52823L90.298 10.3187C90.2875 10.852 90.3863 11.254 90.5944 11.5248C90.8133 11.7851 91.1307 11.9194 91.5466 11.9276C91.6426 11.9295 91.7279 11.9311 91.8026 11.9326C91.8774 11.9234 91.9523 11.9142 92.0272 11.905C92.1554 11.8969 92.2453 11.936 92.2969 12.0223C92.3488 12.098 92.3723 12.2585 92.3675 12.5038C92.3631 12.7278 92.3116 12.9028 92.2131 13.0289C92.1148 13.1443 91.9587 13.2159 91.7448 13.2437C91.6486 13.2525 91.5472 13.2558 91.4405 13.2537C91.3337 13.2623 91.2323 13.2657 91.1363 13.2638ZM94.3152 13.2782C94.0593 13.2732 93.8635 13.1947 93.7278 13.0427C93.5923 12.88 93.5272 12.66 93.5327 12.3827L93.6553 6.1439C93.6608 5.86662 93.7343 5.65469 93.8759 5.50811C94.0174 5.36153 94.2162 5.29076 94.4722 5.29579C94.7281 5.30082 94.9239 5.37935 95.0596 5.53138C95.206 5.68362 95.2765 5.89838 95.271 6.17566L95.1484 12.4145C95.1429 12.6917 95.0693 12.909 94.9275 13.0662C94.786 13.2128 94.5819 13.2835 94.3152 13.2782ZM94.5049 3.63211C94.1849 3.62582 93.9359 3.54091 93.7577 3.37738C93.5902 3.21405 93.5093 2.98842 93.515 2.70048C93.5209 2.40187 93.6106 2.17959 93.7841 2.03364C93.9686 1.87723 94.2208 1.80217 94.5407 1.80846C94.8606 1.81475 95.1044 1.89956 95.2719 2.06288C95.4502 2.21575 95.5365 2.44149 95.5306 2.7401C95.5249 3.02804 95.4299 3.25022 95.2454 3.40662C95.0717 3.56324 94.8248 3.6384 94.5049 3.63211ZM99.188 16.2706C98.996 16.2668 98.8371 16.2104 98.7112 16.1012C98.5958 16.0029 98.5291 15.8682 98.5111 15.6972C98.5036 15.537 98.5391 15.3617 98.6175 15.1712L99.7534 12.745L99.7399 13.4329L96.8852 6.41543C96.8144 6.222 96.7913 6.04018 96.816 5.86996C96.8406 5.69975 96.9232 5.56801 97.0638 5.47476C97.2045 5.37084 97.3922 5.32118 97.6268 5.32579C97.8294 5.32978 97.9885 5.38091 98.1039 5.4792C98.2193 5.57749 98.3227 5.74489 98.4141 5.98139L100.712 11.9957L100.264 11.9869L102.829 6.06818C102.93 5.82478 103.045 5.66168 103.175 5.57888C103.305 5.48542 103.482 5.44088 103.706 5.44529C103.898 5.44906 104.046 5.50532 104.15 5.61406C104.266 5.71235 104.333 5.84702 104.35 6.01807C104.379 6.17867 104.349 6.35411 104.26 6.5444L100.08 15.664C99.9686 15.9072 99.8427 16.0701 99.7024 16.1527C99.5728 16.2355 99.4013 16.2748 99.188 16.2706ZM108.055 13.5963C107.511 13.5856 107.022 13.4694 106.589 13.2475C106.167 13.0258 105.836 12.7312 105.598 12.3638C105.36 11.9964 105.246 11.5834 105.255 11.1248C105.266 10.5489 105.419 10.0985 105.713 9.77358C106.019 9.43818 106.508 9.20777 107.183 9.08233C107.869 8.94644 108.787 8.88982 109.939 8.91246L110.691 8.92724L110.671 9.91905L109.935 9.90458C109.168 9.88949 108.559 9.91487 108.11 9.98072C107.66 10.0466 107.338 10.1682 107.142 10.3458C106.958 10.5128 106.862 10.751 106.856 11.0603C106.848 11.4655 106.98 11.7989 107.253 12.0603C107.525 12.311 107.907 12.4412 108.397 12.4508C108.792 12.4586 109.14 12.3748 109.442 12.1993C109.745 12.0132 109.984 11.7619 110.161 11.4453C110.349 11.1289 110.447 10.7628 110.455 10.3469L110.491 8.50723C110.503 7.89935 110.384 7.45959 110.133 7.18794C109.882 6.91629 109.464 6.7747 108.877 6.76317C108.536 6.75647 108.178 6.7921 107.803 6.87008C107.438 6.94827 107.057 7.0848 106.658 7.27967C106.475 7.36143 106.32 7.38505 106.193 7.35054C106.066 7.31603 105.966 7.24472 105.893 7.1366C105.821 7.01783 105.78 6.89434 105.772 6.76616C105.775 6.62752 105.81 6.49484 105.876 6.36812C105.953 6.24161 106.078 6.14804 106.25 6.08741C106.723 5.87268 107.19 5.72183 107.651 5.63486C108.111 5.54789 108.544 5.50839 108.949 5.51636C109.664 5.53041 110.248 5.65391 110.703 5.88688C111.167 6.12006 111.507 6.46815 111.722 6.93113C111.937 7.39411 112.038 7.98819 112.023 8.71339L111.942 12.8246C111.937 13.0805 111.869 13.2819 111.739 13.4287C111.608 13.5648 111.42 13.6305 111.175 13.6257C110.94 13.621 110.755 13.5481 110.619 13.4067C110.483 13.2547 110.418 13.0507 110.423 12.7947L110.443 11.7549L110.587 11.7578C110.494 12.1507 110.327 12.4888 110.087 12.7721C109.858 13.045 109.571 13.2527 109.227 13.3953C108.883 13.5379 108.492 13.6049 108.055 13.5963ZM114.952 13.6999C114.696 13.6949 114.5 13.6217 114.364 13.4803C114.228 13.3283 114.163 13.1243 114.168 12.8683L114.362 2.99824C114.367 2.73163 114.44 2.53036 114.582 2.39445C114.723 2.25853 114.922 2.19309 115.178 2.19812C115.434 2.20315 115.63 2.27635 115.765 2.41772C115.912 2.55929 115.983 2.76339 115.977 3.03L115.89 7.46115L115.666 7.45674C115.913 6.86414 116.29 6.42346 116.797 6.1347C117.304 5.83528 117.883 5.69196 118.533 5.70475C119.152 5.71691 119.662 5.84428 120.062 6.08687C120.474 6.319 120.776 6.67168 120.97 7.14491C121.163 7.60747 121.253 8.19068 121.239 8.89454L121.158 13.0058C121.153 13.2617 121.08 13.463 120.939 13.6095C120.797 13.7455 120.598 13.8109 120.343 13.8059C120.076 13.8006 119.875 13.7273 119.739 13.586C119.603 13.4339 119.538 13.2299 119.543 12.974L119.622 8.95877C119.635 8.2869 119.511 7.7937 119.251 7.47919C119.001 7.16489 118.599 7.00228 118.044 6.99138C117.393 6.97859 116.867 7.17095 116.464 7.56845C116.072 7.96616 115.87 8.50628 115.856 9.18881L115.783 12.9001C115.773 13.444 115.495 13.7106 114.952 13.6999ZM128.549 13.8552C128.261 13.8495 128.054 13.7814 127.929 13.6509C127.803 13.5098 127.743 13.3219 127.748 13.0873C127.751 12.938 127.791 12.7947 127.868 12.6576C127.945 12.5204 128.055 12.3785 128.196 12.2319L131.676 8.65161C132.209 8.10732 132.592 7.60809 132.825 7.15391C133.069 6.68928 133.196 6.22234 133.205 5.7531C133.217 5.15588 133.044 4.69907 132.688 4.38267C132.331 4.06627 131.801 3.90115 131.097 3.88732C130.67 3.87893 130.259 3.93485 129.862 4.05507C129.464 4.17528 129.066 4.37549 128.665 4.65568C128.503 4.75918 128.353 4.80423 128.215 4.79084C128.076 4.77745 127.955 4.72172 127.85 4.62364C127.756 4.52577 127.694 4.40721 127.665 4.26794C127.636 4.12867 127.644 3.9848 127.689 3.83633C127.735 3.68787 127.839 3.56188 128.001 3.45838C128.445 3.13638 128.956 2.89038 129.536 2.7204C130.115 2.55043 130.703 2.47131 131.301 2.48305C132.079 2.49835 132.733 2.63389 133.261 2.88965C133.8 3.13497 134.204 3.48964 134.472 3.95366C134.741 4.41769 134.868 4.98031 134.855 5.64152C134.846 6.08943 134.763 6.52521 134.606 6.94886C134.459 7.37272 134.231 7.80567 133.924 8.24771C133.627 8.6793 133.24 9.13577 132.761 9.61712L129.463 12.9449L129.472 12.481L134.559 12.581C134.793 12.5856 134.974 12.6479 135.099 12.7677C135.225 12.8875 135.286 13.0594 135.281 13.2834C135.277 13.5073 135.209 13.682 135.079 13.8075C134.949 13.9223 134.766 13.9774 134.531 13.9728L128.549 13.8552ZM140.841 14.2408C139.529 14.215 138.537 13.6994 137.863 12.694C137.2 11.6781 136.887 10.237 136.924 8.3707C136.949 7.10161 137.124 6.04352 137.45 5.19643C137.776 4.34934 138.242 3.71304 138.848 3.28753C139.454 2.86202 140.194 2.65786 141.069 2.67505C142.391 2.70105 143.384 3.21133 144.047 4.20589C144.71 5.18978 145.024 6.62555 144.987 8.51318C144.962 9.76094 144.787 10.8137 144.46 11.6715C144.134 12.5292 143.668 13.1762 143.062 13.6123C142.456 14.0485 141.716 14.258 140.841 14.2408ZM140.868 12.8651C141.689 12.8812 142.299 12.5358 142.697 11.8288C143.106 11.1114 143.325 9.99548 143.355 8.48111C143.385 6.95607 143.209 5.84307 142.828 5.14212C142.458 4.43071 141.863 4.06693 141.041 4.05079C140.231 4.03486 139.622 4.37494 139.213 5.07105C138.805 5.75649 138.586 6.86174 138.556 8.38677C138.526 9.90115 138.701 11.0248 139.082 11.7578C139.462 12.48 140.058 12.8492 140.868 12.8651ZM147.732 14.2323C147.444 14.2266 147.238 14.1585 147.112 14.028C146.987 13.8869 146.927 13.699 146.931 13.4644C146.934 13.3151 146.974 13.1718 147.052 13.0346C147.129 12.8975 147.239 12.7556 147.38 12.609L150.859 9.0287C151.393 8.48441 151.776 7.98518 152.009 7.53101C152.253 7.06638 152.379 6.59944 152.389 6.1302C152.4 5.53298 152.228 5.07617 151.871 4.75977C151.515 4.44337 150.985 4.27825 150.281 4.26441C149.854 4.25603 149.442 4.31194 149.045 4.43216C148.648 4.55238 148.25 4.75258 147.849 5.03277C147.687 5.13627 147.537 5.18133 147.399 5.16794C147.26 5.15455 147.138 5.09882 147.034 5.00074C146.94 4.90287 146.878 4.7843 146.849 4.64503C146.819 4.50576 146.828 4.3619 146.873 4.21343C146.919 4.06497 147.023 3.93898 147.185 3.83548C147.628 3.51347 148.14 3.26748 148.719 3.0975C149.299 2.92752 149.887 2.8484 150.484 2.86014C151.263 2.87545 151.916 3.01098 152.445 3.26675C152.984 3.51206 153.388 3.86673 153.656 4.33076C153.924 4.79479 154.052 5.35741 154.039 6.01861C154.03 6.46653 153.947 6.90231 153.789 7.32596C153.642 7.74982 153.415 8.18277 153.108 8.62481C152.811 9.0564 152.423 9.51287 151.945 9.99422L148.647 13.322L148.656 12.8581L153.743 12.9581C153.977 12.9627 154.157 13.025 154.283 13.1448C154.409 13.2646 154.469 13.4365 154.465 13.6605C154.461 13.8844 154.393 14.0591 154.263 14.1846C154.132 14.2994 153.95 14.3545 153.715 14.3499L147.732 14.2323ZM161.881 14.6224C161.625 14.6174 161.424 14.5441 161.277 14.4025C161.131 14.2503 161.06 14.0462 161.065 13.7902L161.097 12.2065L156.809 12.1222C156.543 12.117 156.331 12.0541 156.173 11.9337C156.015 11.8132 155.939 11.6304 155.944 11.3851C155.946 11.2464 155.981 11.0978 156.049 10.9391C156.126 10.7806 156.258 10.5751 156.445 10.3227L161.233 3.64754C161.354 3.46854 161.49 3.33786 161.641 3.25547C161.792 3.16243 161.963 3.11779 162.155 3.12156C162.379 3.12597 162.559 3.19885 162.695 3.34022C162.842 3.47113 162.913 3.67522 162.907 3.9525L162.772 10.8472L163.779 10.867C164.035 10.872 164.221 10.9343 164.336 11.054C164.462 11.1738 164.522 11.3457 164.518 11.5696C164.513 11.8042 164.446 11.979 164.315 12.0938C164.196 12.2088 164.008 12.2637 163.752 12.2587L162.744 12.2389L162.713 13.8226C162.708 14.0785 162.629 14.2797 162.477 14.4261C162.336 14.562 162.137 14.6274 161.881 14.6224ZM161.124 10.8148L161.235 5.16787L161.667 5.17636L157.372 11.1891L157.381 10.7412L161.124 10.8148Z" fill="#25282B"/>
</g>
<defs>
<filter id="filter0_d_203_22" x="0.522156" y="-0.003479" width="168.161" height="25.588" filterUnits="userSpaceOnUse" color-interpolation-filters="sRGB">
<feFlood flood-opacity="0" result="BackgroundImageFix"/>
<feColorMatrix in="SourceAlpha" type="matrix" values="0 0 0 0 0 0 0 0 0 0 0 0 0 0 0 0 0 0 127 0" result="hardAlpha"/>
<feOffset dy="4"/>
<feGaussianBlur stdDeviation="2"/>
<feComposite in2="hardAlpha" operator="out"/>
<feColorMatrix type="matrix" values="0 0 0 0 0 0 0 0 0 0 0 0 0 0 0 0 0 0 0.25 0"/>
<feBlend mode="normal" in2="BackgroundImageFix" result="effect1_dropShadow_203_22"/>
<feBlend mode="normal" in="SourceGraphic" in2="effect1_dropShadow_203_22" result="shape"/>
</filter>
</defs>
</svg>
