<svg width="292" height="32" viewBox="0 0 292 32" fill="none" xmlns="http://www.w3.org/2000/svg">
<path d="M5.418 7.22H6.786L12.006 20H10.278L8.766 16.256H3.402L1.908 20H0.18L5.418 7.22ZM8.406 14.996L6.102 9.092L3.726 14.996H8.406ZM18.2836 20.18C17.5516 20.18 16.8856 20 16.2856 19.64C15.6856 19.28 15.2116 18.812 14.8636 18.236V20H13.4596V6.86H15.0436V12.476C15.4396 11.864 15.9256 11.372 16.5016 11C17.0776 10.628 17.7496 10.442 18.5176 10.442C19.1656 10.442 19.7476 10.58 20.2636 10.856C20.7796 11.12 21.2176 11.486 21.5776 11.954C21.9496 12.41 22.2316 12.932 22.4236 13.52C22.6276 14.096 22.7296 14.702 22.7296 15.338C22.7296 15.998 22.6156 16.622 22.3876 17.21C22.1716 17.786 21.8596 18.302 21.4516 18.758C21.0436 19.202 20.5696 19.55 20.0296 19.802C19.5016 20.054 18.9196 20.18 18.2836 20.18ZM17.8876 18.812C18.3556 18.812 18.7876 18.716 19.1836 18.524C19.5796 18.332 19.9216 18.074 20.2096 17.75C20.4976 17.426 20.7196 17.054 20.8756 16.634C21.0316 16.214 21.1096 15.782 21.1096 15.338C21.1096 14.726 20.9776 14.15 20.7136 13.61C20.4616 13.07 20.1016 12.638 19.6336 12.314C19.1776 11.978 18.6436 11.81 18.0316 11.81C17.5876 11.81 17.1736 11.912 16.7896 12.116C16.4056 12.32 16.0636 12.59 15.7636 12.926C15.4756 13.25 15.2356 13.61 15.0436 14.006V16.724C15.1036 17.024 15.2296 17.3 15.4216 17.552C15.6136 17.804 15.8476 18.026 16.1236 18.218C16.3996 18.398 16.6876 18.542 16.9876 18.65C17.2996 18.758 17.5996 18.812 17.8876 18.812ZM28.7785 20.18C28.0705 20.18 27.4285 20.054 26.8525 19.802C26.2765 19.538 25.7785 19.184 25.3585 18.74C24.9385 18.284 24.6145 17.762 24.3865 17.174C24.1585 16.586 24.0445 15.968 24.0445 15.32C24.0445 14.66 24.1585 14.036 24.3865 13.448C24.6145 12.86 24.9385 12.344 25.3585 11.9C25.7785 11.444 26.2765 11.09 26.8525 10.838C27.4405 10.574 28.0825 10.442 28.7785 10.442C29.4865 10.442 30.1285 10.574 30.7045 10.838C31.2805 11.09 31.7785 11.444 32.1985 11.9C32.6305 12.344 32.9605 12.86 33.1885 13.448C33.4165 14.036 33.5305 14.66 33.5305 15.32C33.5305 15.968 33.4165 16.586 33.1885 17.174C32.9605 17.762 32.6365 18.284 32.2165 18.74C31.7965 19.184 31.2925 19.538 30.7045 19.802C30.1285 20.054 29.4865 20.18 28.7785 20.18ZM25.6645 15.338C25.6645 15.986 25.8025 16.574 26.0785 17.102C26.3665 17.63 26.7445 18.05 27.2125 18.362C27.6805 18.662 28.2025 18.812 28.7785 18.812C29.3545 18.812 29.8765 18.656 30.3445 18.344C30.8245 18.032 31.2025 17.612 31.4785 17.084C31.7665 16.544 31.9105 15.95 31.9105 15.302C31.9105 14.654 31.7665 14.066 31.4785 13.538C31.2025 13.01 30.8245 12.59 30.3445 12.278C29.8765 11.966 29.3545 11.81 28.7785 11.81C28.2025 11.81 27.6805 11.972 27.2125 12.296C26.7445 12.608 26.3665 13.028 26.0785 13.556C25.8025 14.084 25.6645 14.678 25.6645 15.338ZM35.3599 16.238V10.604H36.9439V15.932C36.9439 16.892 37.1119 17.612 37.4479 18.092C37.7839 18.572 38.2819 18.812 38.9419 18.812C39.3739 18.812 39.7879 18.722 40.1839 18.542C40.5919 18.35 40.9579 18.08 41.2819 17.732C41.6059 17.384 41.8579 16.97 42.0379 16.49V10.604H43.6219V18.2C43.6219 18.392 43.6579 18.536 43.7299 18.632C43.8139 18.716 43.9459 18.764 44.1259 18.776V20C43.9459 20.024 43.8019 20.036 43.6939 20.036C43.5979 20.048 43.5019 20.054 43.4059 20.054C43.1059 20.054 42.8479 19.964 42.6319 19.784C42.4159 19.592 42.3019 19.358 42.2899 19.082L42.2539 17.984C41.8459 18.68 41.2939 19.22 40.5979 19.604C39.9139 19.988 39.1639 20.18 38.3479 20.18C37.3639 20.18 36.6199 19.85 36.1159 19.19C35.6119 18.518 35.3599 17.534 35.3599 16.238ZM51.1204 19.532C50.9884 19.592 50.8084 19.67 50.5804 19.766C50.3524 19.862 50.0884 19.946 49.7884 20.018C49.4884 20.09 49.1704 20.126 48.8344 20.126C48.4504 20.126 48.0964 20.06 47.7724 19.928C47.4484 19.784 47.1904 19.568 46.9984 19.28C46.8064 18.98 46.7104 18.608 46.7104 18.164V11.846H45.4324V10.604H46.7104V7.472H48.2944V10.604H50.4004V11.846H48.2944V17.678C48.3184 18.014 48.4324 18.266 48.6364 18.434C48.8404 18.59 49.0804 18.668 49.3564 18.668C49.6684 18.668 49.9564 18.614 50.2204 18.506C50.4844 18.398 50.6584 18.32 50.7424 18.272L51.1204 19.532Z" fill="#25282B"/>
<rect y="30" width="52" height="2" rx="1" fill="#25282B"/>
<path d="M101.53 20V7.22H106.858C107.422 7.22 107.938 7.34 108.406 7.58C108.874 7.808 109.282 8.12 109.63 8.516C109.978 8.9 110.248 9.338 110.44 9.83C110.632 10.31 110.728 10.802 110.728 11.306C110.728 12.002 110.572 12.668 110.26 13.304C109.948 13.928 109.51 14.438 108.946 14.834C108.382 15.218 107.722 15.41 106.966 15.41H103.15V20H101.53ZM103.15 13.97H106.876C107.32 13.97 107.704 13.85 108.028 13.61C108.364 13.37 108.622 13.046 108.802 12.638C108.994 12.23 109.09 11.786 109.09 11.306C109.09 10.802 108.982 10.352 108.766 9.956C108.55 9.548 108.268 9.23 107.92 9.002C107.572 8.774 107.188 8.66 106.768 8.66H103.15V13.97ZM117.461 11.99C116.669 12.002 115.967 12.206 115.355 12.602C114.755 12.986 114.329 13.52 114.077 14.204V20H112.493V10.604H113.969V12.782C114.293 12.134 114.719 11.612 115.247 11.216C115.787 10.808 116.351 10.58 116.939 10.532C117.059 10.532 117.161 10.532 117.245 10.532C117.329 10.532 117.401 10.538 117.461 10.55V11.99ZM122.907 20.18C122.199 20.18 121.557 20.054 120.981 19.802C120.405 19.538 119.907 19.184 119.487 18.74C119.067 18.284 118.743 17.762 118.515 17.174C118.287 16.586 118.173 15.968 118.173 15.32C118.173 14.66 118.287 14.036 118.515 13.448C118.743 12.86 119.067 12.344 119.487 11.9C119.907 11.444 120.405 11.09 120.981 10.838C121.569 10.574 122.211 10.442 122.907 10.442C123.615 10.442 124.257 10.574 124.833 10.838C125.409 11.09 125.907 11.444 126.327 11.9C126.759 12.344 127.089 12.86 127.317 13.448C127.545 14.036 127.659 14.66 127.659 15.32C127.659 15.968 127.545 16.586 127.317 17.174C127.089 17.762 126.765 18.284 126.345 18.74C125.925 19.184 125.421 19.538 124.833 19.802C124.257 20.054 123.615 20.18 122.907 20.18ZM119.793 15.338C119.793 15.986 119.931 16.574 120.207 17.102C120.495 17.63 120.873 18.05 121.341 18.362C121.809 18.662 122.331 18.812 122.907 18.812C123.483 18.812 124.005 18.656 124.473 18.344C124.953 18.032 125.331 17.612 125.607 17.084C125.895 16.544 126.039 15.95 126.039 15.302C126.039 14.654 125.895 14.066 125.607 13.538C125.331 13.01 124.953 12.59 124.473 12.278C124.005 11.966 123.483 11.81 122.907 11.81C122.331 11.81 121.809 11.972 121.341 12.296C120.873 12.608 120.495 13.028 120.207 13.556C119.931 14.084 119.793 14.678 119.793 15.338ZM128.373 23.348C127.965 23.348 127.575 23.288 127.203 23.168C126.831 23.048 126.501 22.856 126.213 22.592L126.951 21.53C127.119 21.686 127.317 21.794 127.545 21.854C127.761 21.914 127.977 21.944 128.193 21.944C128.457 21.944 128.703 21.878 128.931 21.746C129.159 21.614 129.345 21.428 129.489 21.188C129.633 20.96 129.705 20.702 129.705 20.414V10.604H131.289V20.306C131.289 20.894 131.151 21.416 130.875 21.872C130.599 22.34 130.239 22.7 129.795 22.952C129.363 23.216 128.889 23.348 128.373 23.348ZM129.705 8.84V6.86H131.289V8.84H129.705ZM138.008 20.18C137.3 20.18 136.652 20.054 136.064 19.802C135.488 19.538 134.984 19.184 134.552 18.74C134.132 18.284 133.802 17.762 133.562 17.174C133.334 16.586 133.22 15.962 133.22 15.302C133.22 14.414 133.424 13.604 133.832 12.872C134.24 12.14 134.804 11.552 135.524 11.108C136.256 10.664 137.09 10.442 138.026 10.442C138.974 10.442 139.796 10.67 140.492 11.126C141.2 11.57 141.746 12.158 142.13 12.89C142.526 13.61 142.724 14.39 142.724 15.23C142.724 15.35 142.718 15.47 142.706 15.59C142.706 15.698 142.7 15.782 142.688 15.842H134.894C134.942 16.454 135.11 17 135.398 17.48C135.698 17.948 136.082 18.32 136.55 18.596C137.018 18.86 137.522 18.992 138.062 18.992C138.638 18.992 139.178 18.848 139.682 18.56C140.198 18.272 140.552 17.894 140.744 17.426L142.112 17.804C141.908 18.26 141.602 18.668 141.194 19.028C140.798 19.388 140.324 19.67 139.772 19.874C139.232 20.078 138.644 20.18 138.008 20.18ZM134.84 14.744H141.248C141.2 14.132 141.026 13.592 140.726 13.124C140.426 12.656 140.042 12.29 139.574 12.026C139.106 11.762 138.59 11.63 138.026 11.63C137.474 11.63 136.964 11.762 136.496 12.026C136.028 12.29 135.644 12.656 135.344 13.124C135.056 13.592 134.888 14.132 134.84 14.744ZM148.643 20.18C147.935 20.18 147.287 20.054 146.699 19.802C146.123 19.538 145.619 19.178 145.187 18.722C144.767 18.266 144.437 17.744 144.197 17.156C143.969 16.568 143.855 15.944 143.855 15.284C143.855 14.396 144.053 13.586 144.449 12.854C144.845 12.122 145.403 11.54 146.123 11.108C146.843 10.664 147.677 10.442 148.625 10.442C149.549 10.442 150.353 10.652 151.037 11.072C151.733 11.48 152.249 12.032 152.585 12.728L151.037 13.214C150.797 12.77 150.461 12.428 150.029 12.188C149.597 11.936 149.117 11.81 148.589 11.81C148.013 11.81 147.485 11.96 147.005 12.26C146.537 12.56 146.165 12.974 145.889 13.502C145.613 14.018 145.475 14.612 145.475 15.284C145.475 15.944 145.613 16.544 145.889 17.084C146.177 17.612 146.555 18.032 147.023 18.344C147.503 18.656 148.031 18.812 148.607 18.812C148.979 18.812 149.333 18.746 149.669 18.614C150.017 18.482 150.317 18.308 150.569 18.092C150.833 17.864 151.013 17.618 151.109 17.354L152.657 17.822C152.465 18.278 152.171 18.686 151.775 19.046C151.391 19.394 150.929 19.67 150.389 19.874C149.861 20.078 149.279 20.18 148.643 20.18ZM159.312 19.532C159.18 19.592 159 19.67 158.772 19.766C158.544 19.862 158.28 19.946 157.98 20.018C157.68 20.09 157.362 20.126 157.026 20.126C156.642 20.126 156.288 20.06 155.964 19.928C155.64 19.784 155.382 19.568 155.19 19.28C154.998 18.98 154.902 18.608 154.902 18.164V11.846H153.624V10.604H154.902V7.472H156.486V10.604H158.592V11.846H156.486V17.678C156.51 18.014 156.624 18.266 156.828 18.434C157.032 18.59 157.272 18.668 157.548 18.668C157.86 18.668 158.148 18.614 158.412 18.506C158.676 18.398 158.85 18.32 158.934 18.272L159.312 19.532ZM164.002 20.18C163.222 20.18 162.49 20.054 161.806 19.802C161.122 19.538 160.534 19.148 160.042 18.632L160.654 17.516C161.194 18.02 161.734 18.38 162.274 18.596C162.814 18.812 163.366 18.92 163.93 18.92C164.578 18.92 165.106 18.8 165.514 18.56C165.922 18.308 166.126 17.942 166.126 17.462C166.126 17.114 166.018 16.856 165.802 16.688C165.598 16.52 165.304 16.382 164.92 16.274C164.536 16.154 164.08 16.022 163.552 15.878C162.904 15.686 162.358 15.482 161.914 15.266C161.47 15.05 161.134 14.78 160.906 14.456C160.678 14.132 160.564 13.724 160.564 13.232C160.564 12.632 160.72 12.128 161.032 11.72C161.344 11.3 161.77 10.982 162.31 10.766C162.862 10.55 163.486 10.442 164.182 10.442C164.878 10.442 165.508 10.55 166.072 10.766C166.636 10.982 167.122 11.3 167.53 11.72L166.81 12.818C166.438 12.434 166.03 12.152 165.586 11.972C165.142 11.78 164.644 11.684 164.092 11.684C163.768 11.684 163.45 11.726 163.138 11.81C162.826 11.882 162.568 12.02 162.364 12.224C162.16 12.416 162.058 12.692 162.058 13.052C162.058 13.352 162.136 13.592 162.292 13.772C162.46 13.94 162.7 14.084 163.012 14.204C163.336 14.324 163.726 14.456 164.182 14.6C164.89 14.804 165.502 15.008 166.018 15.212C166.546 15.416 166.954 15.68 167.242 16.004C167.53 16.328 167.674 16.778 167.674 17.354C167.674 18.242 167.338 18.938 166.666 19.442C165.994 19.934 165.106 20.18 164.002 20.18Z" fill="#25282B"/>
<path d="M217.702 13.52C217.702 12.74 217.834 11.978 218.098 11.234C218.374 10.478 218.77 9.794 219.286 9.182C219.814 8.558 220.456 8.066 221.212 7.706C221.968 7.334 222.826 7.148 223.786 7.148C224.926 7.148 225.904 7.412 226.72 7.94C227.536 8.456 228.142 9.122 228.538 9.938L227.26 10.766C227.008 10.226 226.684 9.8 226.288 9.488C225.904 9.164 225.484 8.936 225.028 8.804C224.584 8.672 224.146 8.606 223.714 8.606C223.006 8.606 222.376 8.75 221.824 9.038C221.284 9.326 220.828 9.71 220.456 10.19C220.084 10.67 219.802 11.21 219.61 11.81C219.43 12.398 219.34 12.992 219.34 13.592C219.34 14.252 219.448 14.888 219.664 15.5C219.892 16.112 220.204 16.652 220.6 17.12C220.996 17.588 221.464 17.96 222.004 18.236C222.544 18.512 223.132 18.65 223.768 18.65C224.212 18.65 224.668 18.572 225.136 18.416C225.604 18.26 226.042 18.02 226.45 17.696C226.858 17.36 227.182 16.928 227.422 16.4L228.772 17.138C228.508 17.774 228.1 18.314 227.548 18.758C226.996 19.202 226.378 19.538 225.694 19.766C225.022 19.994 224.356 20.108 223.696 20.108C222.82 20.108 222.016 19.922 221.284 19.55C220.552 19.166 219.916 18.662 219.376 18.038C218.848 17.402 218.434 16.694 218.134 15.914C217.846 15.122 217.702 14.324 217.702 13.52ZM234.652 20.18C233.944 20.18 233.302 20.054 232.726 19.802C232.15 19.538 231.652 19.184 231.232 18.74C230.812 18.284 230.488 17.762 230.26 17.174C230.032 16.586 229.918 15.968 229.918 15.32C229.918 14.66 230.032 14.036 230.26 13.448C230.488 12.86 230.812 12.344 231.232 11.9C231.652 11.444 232.15 11.09 232.726 10.838C233.314 10.574 233.956 10.442 234.652 10.442C235.36 10.442 236.002 10.574 236.578 10.838C237.154 11.09 237.652 11.444 238.072 11.9C238.504 12.344 238.834 12.86 239.062 13.448C239.29 14.036 239.404 14.66 239.404 15.32C239.404 15.968 239.29 16.586 239.062 17.174C238.834 17.762 238.51 18.284 238.09 18.74C237.67 19.184 237.166 19.538 236.578 19.802C236.002 20.054 235.36 20.18 234.652 20.18ZM231.538 15.338C231.538 15.986 231.676 16.574 231.952 17.102C232.24 17.63 232.618 18.05 233.086 18.362C233.554 18.662 234.076 18.812 234.652 18.812C235.228 18.812 235.75 18.656 236.218 18.344C236.698 18.032 237.076 17.612 237.352 17.084C237.64 16.544 237.784 15.95 237.784 15.302C237.784 14.654 237.64 14.066 237.352 13.538C237.076 13.01 236.698 12.59 236.218 12.278C235.75 11.966 235.228 11.81 234.652 11.81C234.076 11.81 233.554 11.972 233.086 12.296C232.618 12.608 232.24 13.028 231.952 13.556C231.676 14.084 231.538 14.678 231.538 15.338ZM249.477 20H247.893V14.744C247.893 13.748 247.737 13.022 247.425 12.566C247.125 12.098 246.663 11.864 246.039 11.864C245.607 11.864 245.175 11.972 244.743 12.188C244.323 12.404 243.945 12.698 243.609 13.07C243.285 13.43 243.051 13.85 242.907 14.33V20H241.323V10.604H242.763V12.62C243.015 12.176 243.339 11.792 243.735 11.468C244.131 11.144 244.581 10.892 245.085 10.712C245.589 10.532 246.117 10.442 246.669 10.442C247.209 10.442 247.659 10.544 248.019 10.748C248.391 10.94 248.679 11.216 248.883 11.576C249.099 11.924 249.249 12.338 249.333 12.818C249.429 13.298 249.477 13.82 249.477 14.384V20ZM256.712 19.532C256.58 19.592 256.4 19.67 256.172 19.766C255.944 19.862 255.68 19.946 255.38 20.018C255.08 20.09 254.762 20.126 254.426 20.126C254.042 20.126 253.688 20.06 253.364 19.928C253.04 19.784 252.782 19.568 252.59 19.28C252.398 18.98 252.302 18.608 252.302 18.164V11.846H251.024V10.604H252.302V7.472H253.886V10.604H255.992V11.846H253.886V17.678C253.91 18.014 254.024 18.266 254.228 18.434C254.432 18.59 254.672 18.668 254.948 18.668C255.26 18.668 255.548 18.614 255.812 18.506C256.076 18.398 256.25 18.32 256.334 18.272L256.712 19.532ZM257.442 17.282C257.442 16.682 257.61 16.166 257.946 15.734C258.294 15.29 258.768 14.948 259.368 14.708C259.968 14.468 260.664 14.348 261.456 14.348C261.876 14.348 262.32 14.384 262.788 14.456C263.256 14.516 263.67 14.612 264.03 14.744V14.06C264.03 13.34 263.814 12.776 263.382 12.368C262.95 11.948 262.338 11.738 261.546 11.738C261.03 11.738 260.532 11.834 260.052 12.026C259.584 12.206 259.086 12.47 258.558 12.818L257.982 11.702C258.594 11.282 259.206 10.97 259.818 10.766C260.43 10.55 261.066 10.442 261.726 10.442C262.926 10.442 263.874 10.778 264.57 11.45C265.266 12.11 265.614 13.034 265.614 14.222V18.2C265.614 18.392 265.65 18.536 265.722 18.632C265.806 18.716 265.938 18.764 266.118 18.776V20C265.962 20.024 265.824 20.042 265.704 20.054C265.596 20.066 265.506 20.072 265.434 20.072C265.062 20.072 264.78 19.97 264.588 19.766C264.408 19.562 264.306 19.346 264.282 19.118L264.246 18.524C263.838 19.052 263.304 19.46 262.644 19.748C261.984 20.036 261.33 20.18 260.682 20.18C260.058 20.18 259.5 20.054 259.008 19.802C258.516 19.538 258.132 19.19 257.856 18.758C257.58 18.314 257.442 17.822 257.442 17.282ZM263.562 17.948C263.706 17.78 263.82 17.612 263.904 17.444C263.988 17.264 264.03 17.114 264.03 16.994V15.824C263.658 15.68 263.268 15.572 262.86 15.5C262.452 15.416 262.05 15.374 261.654 15.374C260.85 15.374 260.196 15.536 259.692 15.86C259.2 16.172 258.954 16.604 258.954 17.156C258.954 17.456 259.032 17.75 259.188 18.038C259.356 18.314 259.596 18.542 259.908 18.722C260.232 18.902 260.628 18.992 261.096 18.992C261.588 18.992 262.056 18.896 262.5 18.704C262.944 18.5 263.298 18.248 263.562 17.948ZM272.305 20.18C271.597 20.18 270.949 20.054 270.361 19.802C269.785 19.538 269.281 19.178 268.849 18.722C268.429 18.266 268.099 17.744 267.859 17.156C267.631 16.568 267.517 15.944 267.517 15.284C267.517 14.396 267.715 13.586 268.111 12.854C268.507 12.122 269.065 11.54 269.785 11.108C270.505 10.664 271.339 10.442 272.287 10.442C273.211 10.442 274.015 10.652 274.699 11.072C275.395 11.48 275.911 12.032 276.247 12.728L274.699 13.214C274.459 12.77 274.123 12.428 273.691 12.188C273.259 11.936 272.779 11.81 272.251 11.81C271.675 11.81 271.147 11.96 270.667 12.26C270.199 12.56 269.827 12.974 269.551 13.502C269.275 14.018 269.137 14.612 269.137 15.284C269.137 15.944 269.275 16.544 269.551 17.084C269.839 17.612 270.217 18.032 270.685 18.344C271.165 18.656 271.693 18.812 272.269 18.812C272.641 18.812 272.995 18.746 273.331 18.614C273.679 18.482 273.979 18.308 274.231 18.092C274.495 17.864 274.675 17.618 274.771 17.354L276.319 17.822C276.127 18.278 275.833 18.686 275.437 19.046C275.053 19.394 274.591 19.67 274.051 19.874C273.523 20.078 272.941 20.18 272.305 20.18ZM282.974 19.532C282.842 19.592 282.662 19.67 282.434 19.766C282.206 19.862 281.942 19.946 281.642 20.018C281.342 20.09 281.024 20.126 280.688 20.126C280.304 20.126 279.95 20.06 279.626 19.928C279.302 19.784 279.044 19.568 278.852 19.28C278.66 18.98 278.564 18.608 278.564 18.164V11.846H277.286V10.604H278.564V7.472H280.148V10.604H282.254V11.846H280.148V17.678C280.172 18.014 280.286 18.266 280.49 18.434C280.694 18.59 280.934 18.668 281.21 18.668C281.522 18.668 281.81 18.614 282.074 18.506C282.338 18.398 282.512 18.32 282.596 18.272L282.974 19.532ZM287.664 20.18C286.884 20.18 286.152 20.054 285.468 19.802C284.784 19.538 284.196 19.148 283.704 18.632L284.316 17.516C284.856 18.02 285.396 18.38 285.936 18.596C286.476 18.812 287.028 18.92 287.592 18.92C288.24 18.92 288.768 18.8 289.176 18.56C289.584 18.308 289.788 17.942 289.788 17.462C289.788 17.114 289.68 16.856 289.464 16.688C289.26 16.52 288.966 16.382 288.582 16.274C288.198 16.154 287.742 16.022 287.214 15.878C286.566 15.686 286.02 15.482 285.576 15.266C285.132 15.05 284.796 14.78 284.568 14.456C284.34 14.132 284.226 13.724 284.226 13.232C284.226 12.632 284.382 12.128 284.694 11.72C285.006 11.3 285.432 10.982 285.972 10.766C286.524 10.55 287.148 10.442 287.844 10.442C288.54 10.442 289.17 10.55 289.734 10.766C290.298 10.982 290.784 11.3 291.192 11.72L290.472 12.818C290.1 12.434 289.692 12.152 289.248 11.972C288.804 11.78 288.306 11.684 287.754 11.684C287.43 11.684 287.112 11.726 286.8 11.81C286.488 11.882 286.23 12.02 286.026 12.224C285.822 12.416 285.72 12.692 285.72 13.052C285.72 13.352 285.798 13.592 285.954 13.772C286.122 13.94 286.362 14.084 286.674 14.204C286.998 14.324 287.388 14.456 287.844 14.6C288.552 14.804 289.164 15.008 289.68 15.212C290.208 15.416 290.616 15.68 290.904 16.004C291.192 16.328 291.336 16.778 291.336 17.354C291.336 18.242 291 18.938 290.328 19.442C289.656 19.934 288.768 20.18 287.664 20.18Z" fill="#25282B"/>
</svg>
