<svg width="75" height="28" viewBox="0 0 75 18" fill="none" xmlns="http://www.w3.org/2000/svg">
<path d="M0.53 14V1.22H5.858C6.422 1.22 6.938 1.34 7.406 1.58C7.874 1.808 8.282 2.12 8.63 2.516C8.978 2.9 9.248 3.338 9.44 3.83C9.632 4.31 9.728 4.802 9.728 5.306C9.728 6.002 9.572 6.668 9.26 7.304C8.948 7.928 8.51 8.438 7.946 8.834C7.382 9.218 6.722 9.41 5.966 9.41H2.15V14H0.53ZM2.15 7.97H5.876C6.32 7.97 6.704 7.85 7.028 7.61C7.364 7.37 7.622 7.046 7.802 6.638C7.994 6.23 8.09 5.786 8.09 5.306C8.09 4.802 7.982 4.352 7.766 3.956C7.55 3.548 7.268 3.23 6.92 3.002C6.572 2.774 6.188 2.66 5.768 2.66H2.15V7.97ZM16.4608 5.99C15.6688 6.002 14.9668 6.206 14.3548 6.602C13.7548 6.986 13.3288 7.52 13.0768 8.204V14H11.4928V4.604H12.9688V6.782C13.2928 6.134 13.7188 5.612 14.2468 5.216C14.7868 4.808 15.3508 4.58 15.9388 4.532C16.0588 4.532 16.1608 4.532 16.2448 4.532C16.3288 4.532 16.4008 4.538 16.4608 4.55V5.99ZM21.9074 14.18C21.1994 14.18 20.5574 14.054 19.9814 13.802C19.4054 13.538 18.9074 13.184 18.4874 12.74C18.0674 12.284 17.7434 11.762 17.5154 11.174C17.2874 10.586 17.1734 9.968 17.1734 9.32C17.1734 8.66 17.2874 8.036 17.5154 7.448C17.7434 6.86 18.0674 6.344 18.4874 5.9C18.9074 5.444 19.4054 5.09 19.9814 4.838C20.5694 4.574 21.2114 4.442 21.9074 4.442C22.6154 4.442 23.2574 4.574 23.8334 4.838C24.4094 5.09 24.9074 5.444 25.3274 5.9C25.7594 6.344 26.0894 6.86 26.3174 7.448C26.5454 8.036 26.6594 8.66 26.6594 9.32C26.6594 9.968 26.5454 10.586 26.3174 11.174C26.0894 11.762 25.7654 12.284 25.3454 12.74C24.9254 13.184 24.4214 13.538 23.8334 13.802C23.2574 14.054 22.6154 14.18 21.9074 14.18ZM18.7934 9.338C18.7934 9.986 18.9314 10.574 19.2074 11.102C19.4954 11.63 19.8734 12.05 20.3414 12.362C20.8094 12.662 21.3314 12.812 21.9074 12.812C22.4834 12.812 23.0054 12.656 23.4734 12.344C23.9534 12.032 24.3314 11.612 24.6074 11.084C24.8954 10.544 25.0394 9.95 25.0394 9.302C25.0394 8.654 24.8954 8.066 24.6074 7.538C24.3314 7.01 23.9534 6.59 23.4734 6.278C23.0054 5.966 22.4834 5.81 21.9074 5.81C21.3314 5.81 20.8094 5.972 20.3414 6.296C19.8734 6.608 19.4954 7.028 19.2074 7.556C18.9314 8.084 18.7934 8.678 18.7934 9.338ZM27.3728 17.348C26.9648 17.348 26.5748 17.288 26.2028 17.168C25.8308 17.048 25.5008 16.856 25.2128 16.592L25.9508 15.53C26.1188 15.686 26.3168 15.794 26.5448 15.854C26.7608 15.914 26.9768 15.944 27.1928 15.944C27.4568 15.944 27.7028 15.878 27.9308 15.746C28.1588 15.614 28.3448 15.428 28.4888 15.188C28.6328 14.96 28.7048 14.702 28.7048 14.414V4.604H30.2888V14.306C30.2888 14.894 30.1508 15.416 29.8748 15.872C29.5988 16.34 29.2388 16.7 28.7948 16.952C28.3628 17.216 27.8888 17.348 27.3728 17.348ZM28.7048 2.84V0.86H30.2888V2.84H28.7048ZM37.0083 14.18C36.3003 14.18 35.6523 14.054 35.0643 13.802C34.4883 13.538 33.9843 13.184 33.5523 12.74C33.1323 12.284 32.8023 11.762 32.5623 11.174C32.3343 10.586 32.2203 9.962 32.2203 9.302C32.2203 8.414 32.4243 7.604 32.8323 6.872C33.2403 6.14 33.8043 5.552 34.5243 5.108C35.2563 4.664 36.0903 4.442 37.0263 4.442C37.9743 4.442 38.7963 4.67 39.4923 5.126C40.2003 5.57 40.7463 6.158 41.1303 6.89C41.5263 7.61 41.7243 8.39 41.7243 9.23C41.7243 9.35 41.7183 9.47 41.7063 9.59C41.7063 9.698 41.7003 9.782 41.6883 9.842H33.8943C33.9423 10.454 34.1103 11 34.3983 11.48C34.6983 11.948 35.0823 12.32 35.5503 12.596C36.0183 12.86 36.5223 12.992 37.0623 12.992C37.6383 12.992 38.1783 12.848 38.6823 12.56C39.1983 12.272 39.5523 11.894 39.7443 11.426L41.1123 11.804C40.9083 12.26 40.6023 12.668 40.1943 13.028C39.7983 13.388 39.3243 13.67 38.7723 13.874C38.2323 14.078 37.6443 14.18 37.0083 14.18ZM33.8403 8.744H40.2483C40.2003 8.132 40.0263 7.592 39.7263 7.124C39.4263 6.656 39.0423 6.29 38.5743 6.026C38.1063 5.762 37.5903 5.63 37.0263 5.63C36.4743 5.63 35.9643 5.762 35.4963 6.026C35.0283 6.29 34.6443 6.656 34.3443 7.124C34.0563 7.592 33.8883 8.132 33.8403 8.744ZM47.643 14.18C46.935 14.18 46.287 14.054 45.699 13.802C45.123 13.538 44.619 13.178 44.187 12.722C43.767 12.266 43.437 11.744 43.197 11.156C42.969 10.568 42.855 9.944 42.855 9.284C42.855 8.396 43.053 7.586 43.449 6.854C43.845 6.122 44.403 5.54 45.123 5.108C45.843 4.664 46.677 4.442 47.625 4.442C48.549 4.442 49.353 4.652 50.037 5.072C50.733 5.48 51.249 6.032 51.585 6.728L50.037 7.214C49.797 6.77 49.461 6.428 49.029 6.188C48.597 5.936 48.117 5.81 47.589 5.81C47.013 5.81 46.485 5.96 46.005 6.26C45.537 6.56 45.165 6.974 44.889 7.502C44.613 8.018 44.475 8.612 44.475 9.284C44.475 9.944 44.613 10.544 44.889 11.084C45.177 11.612 45.555 12.032 46.023 12.344C46.503 12.656 47.031 12.812 47.607 12.812C47.979 12.812 48.333 12.746 48.669 12.614C49.017 12.482 49.317 12.308 49.569 12.092C49.833 11.864 50.013 11.618 50.109 11.354L51.657 11.822C51.465 12.278 51.171 12.686 50.775 13.046C50.391 13.394 49.929 13.67 49.389 13.874C48.861 14.078 48.279 14.18 47.643 14.18ZM58.3118 13.532C58.1798 13.592 57.9998 13.67 57.7718 13.766C57.5438 13.862 57.2798 13.946 56.9798 14.018C56.6798 14.09 56.3618 14.126 56.0258 14.126C55.6418 14.126 55.2878 14.06 54.9638 13.928C54.6398 13.784 54.3818 13.568 54.1898 13.28C53.9978 12.98 53.9018 12.608 53.9018 12.164V5.846H52.6238V4.604H53.9018V1.472H55.4858V4.604H57.5918V5.846H55.4858V11.678C55.5098 12.014 55.6238 12.266 55.8278 12.434C56.0318 12.59 56.2718 12.668 56.5478 12.668C56.8598 12.668 57.1478 12.614 57.4118 12.506C57.6758 12.398 57.8498 12.32 57.9338 12.272L58.3118 13.532ZM63.002 14.18C62.222 14.18 61.49 14.054 60.806 13.802C60.122 13.538 59.534 13.148 59.042 12.632L59.654 11.516C60.194 12.02 60.734 12.38 61.274 12.596C61.814 12.812 62.366 12.92 62.93 12.92C63.578 12.92 64.106 12.8 64.514 12.56C64.922 12.308 65.126 11.942 65.126 11.462C65.126 11.114 65.018 10.856 64.802 10.688C64.598 10.52 64.304 10.382 63.92 10.274C63.536 10.154 63.08 10.022 62.552 9.878C61.904 9.686 61.358 9.482 60.914 9.266C60.47 9.05 60.134 8.78 59.906 8.456C59.678 8.132 59.564 7.724 59.564 7.232C59.564 6.632 59.72 6.128 60.032 5.72C60.344 5.3 60.77 4.982 61.31 4.766C61.862 4.55 62.486 4.442 63.182 4.442C63.878 4.442 64.508 4.55 65.072 4.766C65.636 4.982 66.122 5.3 66.53 5.72L65.81 6.818C65.438 6.434 65.03 6.152 64.586 5.972C64.142 5.78 63.644 5.684 63.092 5.684C62.768 5.684 62.45 5.726 62.138 5.81C61.826 5.882 61.568 6.02 61.364 6.224C61.16 6.416 61.058 6.692 61.058 7.052C61.058 7.352 61.136 7.592 61.292 7.772C61.46 7.94 61.7 8.084 62.012 8.204C62.336 8.324 62.726 8.456 63.182 8.6C63.89 8.804 64.502 9.008 65.018 9.212C65.546 9.416 65.954 9.68 66.242 10.004C66.53 10.328 66.674 10.778 66.674 11.354C66.674 12.242 66.338 12.938 65.666 13.442C64.994 13.934 64.106 14.18 63.002 14.18Z" fill="#00ffff"/>
</svg>


